<?xml version="1.0" encoding="UTF-8" standalone="no"?>
<!-- Created with Inkscape (http://www.inkscape.org/) -->

<svg
   width="1.7626979mm"
   height="7.3619189mm"
   viewBox="0 0 1.7626979 7.3619189"
   version="1.1"
   id="svg11418"
   xml:space="preserve"
   inkscape:version="1.2.1 (9c6d41e410, 2022-07-14, custom)"
   sodipodi:docname="ArrowFrag.svg"
   xmlns:inkscape="http://www.inkscape.org/namespaces/inkscape"
   xmlns:sodipodi="http://sodipodi.sourceforge.net/DTD/sodipodi-0.dtd"
   xmlns="http://www.w3.org/2000/svg"
   xmlns:svg="http://www.w3.org/2000/svg"><sodipodi:namedview
     id="namedview11420"
     pagecolor="#505050"
     bordercolor="#eeeeee"
     borderopacity="1"
     inkscape:showpageshadow="0"
     inkscape:pageopacity="0"
     inkscape:pagecheckerboard="0"
     inkscape:deskcolor="#505050"
     inkscape:document-units="mm"
     showgrid="false"
     inkscape:zoom="5.1754899"
     inkscape:cx="-12.365979"
     inkscape:cy="63.182424"
     inkscape:window-width="1247"
     inkscape:window-height="1367"
     inkscape:window-x="24"
     inkscape:window-y="24"
     inkscape:window-maximized="1"
     inkscape:current-layer="layer1" /><defs
     id="defs11415" /><g
     inkscape:label="Layer 1"
     inkscape:groupmode="layer"
     id="layer1"><path
       style="fill:#ffffff;fill-opacity:1;stroke:none;stroke-width:0.264583px;stroke-linecap:butt;stroke-linejoin:miter;stroke-opacity:1"
       d="M 0.631238,3.9234994 V 5.1049351 L 0,5.736173 V 6.1575196 L 0.5264421,5.6310776 V 5.8962335 L 0.0012988,6.4213766 V 6.7229913 L 0.5510057,6.1732845 V 6.4172931 L 0.025595,6.9427037 V 7.3280648 L 0.6374099,6.7162497 V 7.3619188 H 1.1207127 V 6.7085213 L 1.74453,7.3323384 V 6.925945 L 1.2483011,6.429716 V 6.2400942 L 1.7626979,6.7544913 V 6.3250011 L 1.2539013,5.8162045 V 5.6708516 L 1.7394466,6.156397 V 5.6623855 L 1.1454171,5.0683557 V 3.9193399 Z"
       id="path12277" /><path
       id="rect13368"
       style="opacity:1;vector-effect:none;fill:#8a888a;stroke-width:0.0499999;stop-color:#000000;stop-opacity:1"
       d="M 0.30171,2.2738807 H 1.4998953 V 2.8100614 H 0.30171 Z" /><path
       id="rect13368-7"
       style="fill:#8a888a;stroke-width:0.0499999;stop-color:#000000"
       d="m 0.30171,1.4903848 c 0,0 0.59644119,-0.2488159 1.1981853,0 V 2.0265655 H 0.30171 Z"
       sodipodi:nodetypes="ccccc" /><path
       id="rect13368-3"
       style="fill:#8a888a;stroke-width:0.0499999;stop-color:#000000"
       d="M 0.30171,3.0185673 H 1.4998953 V 3.554748 c -0.56495037,0.2305195 -1.1981853,0 -1.1981853,0 z"
       sodipodi:nodetypes="ccccc" /><path
       id="rect14658"
       style="opacity:1;vector-effect:none;fill:#ffffff;stroke-width:0.0499999;stop-color:#000000;stop-opacity:1"
       d="M 0.5692052,1.0073571 H 1.2054169 V 1.1856153 H 0.5692052 Z" /><path
       style="fill:#ffffff;fill-opacity:1;stroke:none;stroke-width:0.264583px;stroke-linecap:butt;stroke-linejoin:miter;stroke-opacity:1"
       d="M 0.3441208,0.9387149 0.886088,0 1.4198814,0.9245573 Z"
       id="path14869" /></g></svg>
