<?xml version="1.0" encoding="UTF-8" standalone="no"?>
<!-- Created with Inkscape (http://www.inkscape.org/) -->

<svg
   width="3.5014551mm"
   height="7.6049585mm"
   viewBox="0 0 3.5014551 7.6049585"
   version="1.1"
   id="svg17840"
   xml:space="preserve"
   inkscape:version="1.2.1 (9c6d41e410, 2022-07-14, custom)"
   sodipodi:docname="ArrowPoison.svg"
   xmlns:inkscape="http://www.inkscape.org/namespaces/inkscape"
   xmlns:sodipodi="http://sodipodi.sourceforge.net/DTD/sodipodi-0.dtd"
   xmlns="http://www.w3.org/2000/svg"
   xmlns:svg="http://www.w3.org/2000/svg"><sodipodi:namedview
     id="namedview17842"
     pagecolor="#505050"
     bordercolor="#eeeeee"
     borderopacity="1"
     inkscape:showpageshadow="0"
     inkscape:pageopacity="0"
     inkscape:pagecheckerboard="0"
     inkscape:deskcolor="#505050"
     inkscape:document-units="mm"
     showgrid="false"
     inkscape:zoom="14.638496"
     inkscape:cx="14.823927"
     inkscape:cy="21.928482"
     inkscape:window-width="1247"
     inkscape:window-height="1367"
     inkscape:window-x="24"
     inkscape:window-y="24"
     inkscape:window-maximized="1"
     inkscape:current-layer="layer1" /><defs
     id="defs17837" /><g
     inkscape:label="Layer 1"
     inkscape:groupmode="layer"
     id="layer1"><path
       style="fill:#ffffff;fill-opacity:1;stroke:none;stroke-width:0.264583px;stroke-linecap:butt;stroke-linejoin:miter;stroke-opacity:1"
       d="M 1.5678305,3.2985907 V 1.0093614 L 1.0332372,1.2112614 1.7325593,0 2.4190887,1.1891036 1.948854,1.00472 V 3.3485707 L 2.5462559,3.9459726 V 4.1725094 L 2.0303084,3.7438802 V 3.9387225 L 2.5362372,4.3063719 V 4.6189975 L 2.0357503,4.2529041 V 4.4064169 L 2.5502466,4.7780737 V 5.023462 L 1.9819113,4.5884908 V 5.0593933 H 1.5689248 V 4.5491983 L 1.0592215,4.9872414 V 4.6913213 l 0.469638,-0.389323 V 4.1512314 L 1.0194753,4.5286957 V 4.2352379 L 1.4912169,3.9028119 V 3.691857 L 1.0320044,4.0724228 V 3.7588276 Z"
       id="path19425" /><path
       style="fill:#4d8b1a;fill-opacity:1;stroke:none;stroke-width:0.264583px;stroke-linecap:butt;stroke-linejoin:miter;stroke-opacity:1"
       d="m 1.2510196,2.4696247 -0.012044,0.7162178 -0.5474835,0.5234839 -0.00558,1.1061351 c 0,0 -0.4579064,0.4778753 0.085213,0.7098077 l 0.6417262,-0.110121 0.2583669,-0.00955 c -0.4113444,0.6211357 0.082176,0.4935326 0.082176,0.4935326 l 0.1111196,0.016924 c 0,0 0.3367382,0.021365 -0.018458,-0.5211485 l 0.3323447,-0.00703 c 0,0 0.2503617,0.103504 0.553651,0.1252979 0,0 0.513653,-0.3356184 0.070631,-0.7625289 L 2.7929618,3.6393859 2.2714031,3.1562054 2.2634947,2.4424723 c 0,0 0.9549416,0.2645987 1.1912713,1.0711728 l 0.046689,1.073155 c 0,0 -0.1289153,0.5546555 -0.2604429,0.5913588 l 0.00791,0.418552 C 3.3314683,6.1370106 2.6080888,6.0073977 2.6080888,6.0073977 l -0.090781,0.1096452 c 0,0 0.078257,0.6317369 -0.49374,0.5445405 l -0.5902897,0.00655 C 0.9938551,6.6595429 1.0937323,6.1853826 1.0937323,6.1853826 L 0.845627,5.9593798 C -0.0233782,5.9748308 0.302149,5.5753892 0.302149,5.5753892 c 0,0 0.086288,-0.1114382 -0.00414,-0.354462 0,0 -0.1995657,-0.26532 -0.298009,-0.9425138 L 0.023836,3.5055337 c 0,0 0.1952021,-0.7949118 0.9720607,-0.9809955 z"
       id="path19427"
       sodipodi:nodetypes="cccccccccccccccccccccccccccccccc" /><path
       style="fill:#4d8b1a;fill-opacity:1;stroke:none;stroke-width:0.264583px;stroke-linecap:butt;stroke-linejoin:miter;stroke-opacity:1"
       d="M 0.7633069,6.3437929 0.8774804,6.3514629 1.2265043,7.000407 2.2718536,7.016221 2.6641939,6.323287 2.8454039,6.320037 2.8203449,6.9764264 2.0656024,7.6049584 1.3565096,7.5726684 0.7382383,6.9957365 Z"
       id="path20947" /></g></svg>
