<?xml version="1.0" encoding="UTF-8" standalone="no"?>
<!-- Created with Inkscape (http://www.inkscape.org/) -->

<svg
   width="2.5286646mm"
   height="4.0333285mm"
   viewBox="0 0 2.5286646 4.0333285"
   version="1.1"
   id="svg5"
   xml:space="preserve"
   inkscape:version="1.2.1 (9c6d41e410, 2022-07-14, custom)"
   sodipodi:docname="ChokeBolt.svg"
   xmlns:inkscape="http://www.inkscape.org/namespaces/inkscape"
   xmlns:sodipodi="http://sodipodi.sourceforge.net/DTD/sodipodi-0.dtd"
   xmlns="http://www.w3.org/2000/svg"
   xmlns:svg="http://www.w3.org/2000/svg"><sodipodi:namedview
     id="namedview7"
     pagecolor="#505050"
     bordercolor="#eeeeee"
     borderopacity="1"
     inkscape:showpageshadow="0"
     inkscape:pageopacity="0"
     inkscape:pagecheckerboard="0"
     inkscape:deskcolor="#505050"
     inkscape:document-units="mm"
     showgrid="false"
     inkscape:zoom="29.276992"
     inkscape:cx="21.94556"
     inkscape:cy="19.264274"
     inkscape:window-width="2510"
     inkscape:window-height="1367"
     inkscape:window-x="24"
     inkscape:window-y="24"
     inkscape:window-maximized="1"
     inkscape:current-layer="layer1" /><defs
     id="defs2" /><g
     inkscape:label="Layer 1"
     inkscape:groupmode="layer"
     id="layer1"><path
       id="rect4538"
       style="fill:#ffffff;stroke-width:0.264583"
       d="m 1.1228623,2.2714487 h 0.2764418 v 1.76188 H 1.1228623 Z" /><path
       style="fill:#ffffff;fill-opacity:1;stroke:none;stroke-width:0.264583px;stroke-linecap:butt;stroke-linejoin:miter;stroke-opacity:1"
       d="M 1.0581627,2.9421913 0.6919618,3.5198729 1.0581412,3.8744241 Z"
       id="path4595"
       sodipodi:nodetypes="cccc" /><path
       style="fill:#ffffff;fill-opacity:1;stroke:none;stroke-width:0.264583px;stroke-linecap:butt;stroke-linejoin:miter;stroke-opacity:1"
       d="M 1.4621663,2.9418444 1.8283672,3.519526 1.4621878,3.8740772 Z"
       id="path4595-3"
       sodipodi:nodetypes="cccc" /><path
       id="rect4720"
       style="fill:#ffffff;stroke-width:0.264583"
       d="M 1.0663931,1.5072194 H 1.4715539 V 2.2240969 H 1.0663931 Z" /><path
       style="fill:#ffffff;fill-opacity:1;stroke:none;stroke-width:0.264583px;stroke-linecap:butt;stroke-linejoin:miter;stroke-opacity:1"
       d="M 0,2.1835509 0.1548169,2.379246 0.8379284,1.9400802 0.8411184,1.6415651 Z"
       id="path4723"
       sodipodi:nodetypes="ccccc" /><path
       style="fill:#ffffff;fill-opacity:1;stroke:none;stroke-width:0.264583px;stroke-linecap:butt;stroke-linejoin:miter;stroke-opacity:1"
       d="M 1.3689046,1.2570977 1.5925753,1.4203245 2.5286647,0.7905122 2.339272,0.5978148 Z"
       id="path4796"
       sodipodi:nodetypes="ccccc" /><path
       style="fill:#966a41;fill-opacity:1;stroke:none;stroke-width:0.264583px;stroke-linecap:butt;stroke-linejoin:miter;stroke-opacity:1"
       d="m 0.3805712,1.7024188 c 0,0 -0.0748625,-0.5782261 0.13586459,-0.8638316 C 0.52154682,1.0972098 0.6591739,1.3240794 0.6591739,1.3240794 0.7867188,0.0837844 1.4793212,0 1.4793212,0 c 0,0 -0.064672,0.3344341 0.071851,0.4147947 0.121698,0.071634 0.1235496,0.2021917 0.1482757,0.4021581 L 1.4029288,1.0191756 c 0,0 -0.094075,4.933e-4 -0.1040159,-0.1804467 -0.057418,0.1692485 -0.016521,0.2385392 -0.016521,0.2385392 z"
       id="path4800"
       sodipodi:nodetypes="cccccccccc" /><path
       style="fill:#966a41;fill-opacity:1;stroke:none;stroke-width:0.264583px;stroke-linecap:butt;stroke-linejoin:miter;stroke-opacity:1"
       d="m 0.682881,2.2600969 0.1564611,-0.058488 0.1017633,0.1542394 -0.096854,0.104163 c 0,0 -0.1112129,-0.069701 -0.1613704,-0.1999144 z"
       id="path8076" /><path
       style="fill:#966a41;fill-opacity:1;stroke:none;stroke-width:0.264583px;stroke-linecap:butt;stroke-linejoin:miter;stroke-opacity:1"
       d="m 1.5873434,2.3212395 0.034011,0.1548672 c 0,0 0.6773808,-0.268839 0.4945928,-1.1400409 L 1.7272559,1.5428033 C 1.7721404,2.3664011 1.5873434,2.3212395 1.5873434,2.3212395 Z"
       id="path8078"
       sodipodi:nodetypes="ccccc" /></g></svg>
