<?xml version="1.0" encoding="UTF-8" standalone="no"?>
<!-- Created with Inkscape (http://www.inkscape.org/) -->

<svg
   width="3.5738156mm"
   height="6.8728671mm"
   viewBox="0 0 3.5738156 6.8728671"
   version="1.1"
   id="svg58576"
   xml:space="preserve"
   inkscape:version="1.2.1 (9c6d41e410, 2022-07-14, custom)"
   sodipodi:docname="BoltPoison.svg"
   xmlns:inkscape="http://www.inkscape.org/namespaces/inkscape"
   xmlns:sodipodi="http://sodipodi.sourceforge.net/DTD/sodipodi-0.dtd"
   xmlns="http://www.w3.org/2000/svg"
   xmlns:svg="http://www.w3.org/2000/svg"><sodipodi:namedview
     id="namedview58578"
     pagecolor="#505050"
     bordercolor="#eeeeee"
     borderopacity="1"
     inkscape:showpageshadow="0"
     inkscape:pageopacity="0"
     inkscape:pagecheckerboard="0"
     inkscape:deskcolor="#505050"
     inkscape:document-units="mm"
     showgrid="false"
     inkscape:zoom="5.1754899"
     inkscape:cx="44.633456"
     inkscape:cy="80.958519"
     inkscape:window-width="1247"
     inkscape:window-height="1367"
     inkscape:window-x="24"
     inkscape:window-y="24"
     inkscape:window-maximized="1"
     inkscape:current-layer="layer1" /><defs
     id="defs58573" /><g
     inkscape:label="Layer 1"
     inkscape:groupmode="layer"
     id="layer1"><rect
       style="fill:#ffffff;fill-opacity:1;stroke:none;stroke-width:0.0499999"
       id="rect60071"
       width="0.42656302"
       height="3.3790419"
       x="1.5090569"
       y="1.4472207" /><path
       style="fill:#ffffff;fill-opacity:1;stroke:none;stroke-width:0.264583px;stroke-linecap:butt;stroke-linejoin:miter;stroke-opacity:1"
       d="M 1.3949064,2.5586649 0.71898999,3.7705722 0.87071239,4.0373558 1.0998979,3.7631771 0.90492569,4.1841641 1.0553902,4.3178396 1.2522243,4.1051902 1.1670521,4.4334871 1.3799276,4.6067508 Z"
       id="path60073"
       sodipodi:nodetypes="cccccccccc" /><path
       style="fill:#ffffff;fill-opacity:1;stroke:none;stroke-width:0.264583px;stroke-linecap:butt;stroke-linejoin:miter;stroke-opacity:1"
       d="M 2.0775132,2.5732552 2.7534296,3.7851625 2.6017072,4.0519461 2.3725217,3.7777674 2.5674939,4.1987544 2.4170294,4.3324299 2.2201953,4.1197805 2.3053675,4.4480774 2.092492,4.6213411 Z"
       id="path60073-0"
       sodipodi:nodetypes="cccccccccc" /><path
       style="fill:#ffffff;fill-opacity:1;stroke:none;stroke-width:0.264583px;stroke-linecap:butt;stroke-linejoin:miter;stroke-opacity:1"
       d="M 1.5528318,1.280189 1.2963169,0.9454715 1.7372281,0 2.1484226,0.9604716 1.8971057,1.2734422 Z"
       id="path60097" /><path
       style="fill:#4a821c;fill-opacity:1;stroke:none;stroke-width:0.05;stroke-linecap:butt;stroke-linejoin:miter;stroke-dasharray:none;stroke-opacity:1"
       d="M 1.070772,2.1088632 1.046057,2.289193 c 0,0 -0.61429131,0.7138593 -0.71484881,1.1841921 0,0 -0.06554,0.7134597 0.2480929,1.3692854 l 0.49723911,0.036571 c 0,0 0.1879863,0.3564664 0.4028586,0.4852273 L 2.0516137,5.3526948 C 2.1685904,5.3232322 2.4974893,4.8712074 2.4974893,4.8712074 l 0.5028194,-0.022862 c 0,0 0.1127779,-0.4207044 0.093322,-0.6255102 0.1857219,-0.4755569 0.09592,-0.9328925 0.09592,-0.9328925 C 3.0726188,2.8887097 2.463046,2.1789014 2.463046,2.1789014 L 2.522614,2.0152933 c 0,0 1.0694087,0.6335875 1.0410785,1.0095802 l 0.010123,0.8221757 C 3.542079,4.059607 3.2856631,4.7883965 3.2856631,4.7883965 3.4485459,5.0080478 3.1497475,5.3530565 3.1497475,5.3530565 2.5779989,5.1957878 2.5721819,5.6822898 2.2477038,5.9084995 L 1.31971,5.9664892 C 1.0834791,5.8289774 1.0268256,5.239658 0.32945659,5.2694521 0.31700253,4.7475104 0.06168639,3.8467093 0.06168639,3.8467093 -0.07477136,3.5905765 0.05774679,2.8622831 0.05774679,2.8622831 0.28699899,2.2271492 1.070772,2.1088632 1.070772,2.1088632 Z"
       id="path60099"
       sodipodi:nodetypes="ccccccccccccccccccccccc" /><path
       style="fill:#4a821c;fill-opacity:1;stroke:none;stroke-width:0.264583px;stroke-linecap:butt;stroke-linejoin:miter;stroke-opacity:1"
       d="m 0.70574149,5.6106411 0.1466805,0.00591 0.35498111,0.652867 0.9192406,-5.292e-4 0.4738155,-0.5938078 0.2260817,0.00989 -0.024146,0.5648068 -0.7176561,0.623089 -0.7581353,-0.00432 -0.64785051,-0.8426016 z"
       id="path60515" /></g></svg>
