<?xml version="1.0" encoding="UTF-8" standalone="no"?>
<!-- Created with Inkscape (http://www.inkscape.org/) -->

<svg
   width="1.3954434mm"
   height="4.2273283mm"
   viewBox="0 0 1.3954434 4.2273283"
   version="1.1"
   id="svg8490"
   xml:space="preserve"
   inkscape:version="1.2.1 (9c6d41e410, 2022-07-14, custom)"
   sodipodi:docname="ChaosBolt.svg"
   xmlns:inkscape="http://www.inkscape.org/namespaces/inkscape"
   xmlns:sodipodi="http://sodipodi.sourceforge.net/DTD/sodipodi-0.dtd"
   xmlns="http://www.w3.org/2000/svg"
   xmlns:svg="http://www.w3.org/2000/svg"><sodipodi:namedview
     id="namedview8492"
     pagecolor="#505050"
     bordercolor="#eeeeee"
     borderopacity="1"
     inkscape:showpageshadow="0"
     inkscape:pageopacity="0"
     inkscape:pagecheckerboard="0"
     inkscape:deskcolor="#505050"
     inkscape:document-units="mm"
     showgrid="false"
     showguides="false"
     inkscape:zoom="14.638496"
     inkscape:cx="36.513314"
     inkscape:cy="29.135507"
     inkscape:window-width="2560"
     inkscape:window-height="1440"
     inkscape:window-x="0"
     inkscape:window-y="0"
     inkscape:window-maximized="1"
     inkscape:current-layer="layer1" /><defs
     id="defs8487" /><g
     inkscape:label="Layer 1"
     inkscape:groupmode="layer"
     id="layer1"><path
       id="rect9270"
       style="fill:#ffffff;stroke-width:0.264583"
       d="m 0.53161986,1.8748679 h 0.3518438 v 2.3524606 h -0.3518438 z" /><path
       style="fill:#ffffff;fill-opacity:1;stroke:none;stroke-width:0.264583px;stroke-linecap:butt;stroke-linejoin:miter;stroke-opacity:1"
       d="m 0.01402286,3.5058898 0.0238548,0.2135285 0.2287149,-0.206739 -0.1604817,0.2596541 0.1158266,0.090658 0.149778,-0.2151012 -0.1038852,0.2731508 0.2043795,0.1357974 V 2.8060267 Z"
       id="path9273"
       sodipodi:nodetypes="cccccccccc" /><path
       style="fill:#ffffff;fill-opacity:1;stroke:none;stroke-width:0.264583px;stroke-linecap:butt;stroke-linejoin:miter;stroke-opacity:1"
       d="M 1.3954434,3.5063215 1.3715886,3.71985 1.1428737,3.513111 1.3033554,3.7727651 1.1875288,3.8634235 1.0377508,3.6483223 1.141636,3.9214731 0.93725646,4.0572705 V 2.8064584 Z"
       id="path9273-6"
       sodipodi:nodetypes="cccccccccc" /><path
       style="fill:#ffffff;fill-opacity:1;stroke:none;stroke-width:0.264583px;stroke-linecap:butt;stroke-linejoin:miter;stroke-opacity:1"
       d="M 0.15336146,0.88809185 C -0.02886804,0.98252735 -0.02809914,1.1820857 0.04927396,1.1881814 0.19600116,1.2949479 1.0880047,1.358186 1.2969717,1.1742534 1.517694,1.0658127 1.236418,0.88100375 1.1848214,0.86393945 1.1102743,0.75493615 1.1604479,0.60892305 1.0395619,0.34160955 0.94245046,0.20358185 0.93140156,0.26287975 0.80233596,0.03396615 c -0.096278,-0.0474874 -0.1745553,-0.0497252 -0.2651917,0.0224983 -0.0564979,0.149106 -0.2045911,0.2349049 -0.2045911,0.2349049 -0.1375553,0.1297507 -0.0702991,0.3463847 -0.1791917,0.5967225 z"
       id="path11232"
       sodipodi:nodetypes="ccccccccc" /><path
       style="fill:#ffffff;fill-opacity:1;stroke:none;stroke-width:0.264583px;stroke-linecap:butt;stroke-linejoin:miter;stroke-opacity:1"
       d="m 0.46191876,1.36093 0.444078,-0.00392 c 0,0 -0.00853,0.1653786 -0.2140127,0.1965338 -0.205481,0.03116 -0.2300653,-0.1926128 -0.2300653,-0.1926128 z"
       id="path11960" /></g></svg>
