<?xml version="1.0" encoding="UTF-8" standalone="no"?>
<!-- Created with Inkscape (http://www.inkscape.org/) -->

<svg
   width="3.8426697mm"
   height="6.183866mm"
   viewBox="0 0 3.8426697 6.183866"
   version="1.1"
   id="svg23909"
   xml:space="preserve"
   inkscape:version="1.2.1 (9c6d41e410, 2022-07-14, custom)"
   sodipodi:docname="CompactDumDum.svg"
   xmlns:inkscape="http://www.inkscape.org/namespaces/inkscape"
   xmlns:sodipodi="http://sodipodi.sourceforge.net/DTD/sodipodi-0.dtd"
   xmlns="http://www.w3.org/2000/svg"
   xmlns:svg="http://www.w3.org/2000/svg"><sodipodi:namedview
     id="namedview23911"
     pagecolor="#505050"
     bordercolor="#eeeeee"
     borderopacity="1"
     inkscape:showpageshadow="0"
     inkscape:pageopacity="0"
     inkscape:pagecheckerboard="0"
     inkscape:deskcolor="#505050"
     inkscape:document-units="mm"
     showgrid="false"
     inkscape:zoom="5.1754899"
     inkscape:cx="44.633456"
     inkscape:cy="101.82611"
     inkscape:window-width="1247"
     inkscape:window-height="1367"
     inkscape:window-x="24"
     inkscape:window-y="24"
     inkscape:window-maximized="1"
     inkscape:current-layer="layer1" /><defs
     id="defs23906" /><g
     inkscape:label="Layer 1"
     inkscape:groupmode="layer"
     id="layer1"><g
       inkscape:label="Layer 1"
       id="layer1-5"
       transform="translate(1.1903245,3.016545)"><path
         id="rect16646"
         style="fill:#ffffff;stroke-width:0.264583"
         d="m 0.1009782,1.4328077 1.0448875,-0.00635 -0.01092,1.5628359 0.067413,0.00648 0.01937,0.1715472 L 0.00218,3.1657808 0,2.9807625 0.088703,2.9768525 Z"
         sodipodi:nodetypes="ccccccccc" /><path
         id="rect16961"
         style="fill:#ffffff;stroke-width:0.264583"
         d="m 0.1272465,0.94699769 c 0,0 0.44042271,-2.13074479 0.9783012,0 V 1.2308378 H 0.1272465 Z"
         sodipodi:nodetypes="ccccc" /></g><path
       style="fill:#902c2b;fill-opacity:1;stroke:none;stroke-width:0.05;stroke-linecap:butt;stroke-linejoin:miter;stroke-dasharray:none;stroke-opacity:1"
       d="m 0.0863735,3.6503212 c 0.6846315,-1.997809 1.7406693,-2.409038 1.7406693,-2.409038 0.993249,0.555354 1.447963,2.380493 1.447963,2.380493 0.394887,-0.942869 -0.960827,-2.696805 -0.960827,-2.696805 0.0376,-0.265391 1.528491,-0.470546 1.528491,-0.470546 -0.750346,-0.681721 -1.964182,0.114896 -1.964182,0.114896 C 0.0303918,-0.7819418 0,0.6962982 0,0.6962982 c 0,0 0.529782,-0.648576 1.4070372,0.04517 0,0 -1.0356941,0.859065 -1.3206637,2.908849 z"
       id="path51433"
       sodipodi:nodetypes="ccccccccc" /></g></svg>
