<?xml version="1.0" encoding="UTF-8" standalone="no"?>
<!-- Created with Inkscape (http://www.inkscape.org/) -->

<svg
   width="3.1890535mm"
   height="6.1416817mm"
   viewBox="0 0 3.1890535 6.1416817"
   version="1.1"
   id="svg7410"
   xml:space="preserve"
   inkscape:version="1.2.1 (9c6d41e410, 2022-07-14, custom)"
   sodipodi:docname="CompactIncendiary.svg"
   xmlns:inkscape="http://www.inkscape.org/namespaces/inkscape"
   xmlns:sodipodi="http://sodipodi.sourceforge.net/DTD/sodipodi-0.dtd"
   xmlns="http://www.w3.org/2000/svg"
   xmlns:svg="http://www.w3.org/2000/svg"><sodipodi:namedview
     id="namedview7412"
     pagecolor="#505050"
     bordercolor="#eeeeee"
     borderopacity="1"
     inkscape:showpageshadow="0"
     inkscape:pageopacity="0"
     inkscape:pagecheckerboard="0"
     inkscape:deskcolor="#505050"
     inkscape:document-units="mm"
     showgrid="false"
     inkscape:zoom="10.35098"
     inkscape:cx="35.986931"
     inkscape:cy="32.267476"
     inkscape:window-width="2510"
     inkscape:window-height="1367"
     inkscape:window-x="24"
     inkscape:window-y="24"
     inkscape:window-maximized="1"
     inkscape:current-layer="layer1" /><defs
     id="defs7407" /><g
     inkscape:label="Layer 1"
     inkscape:groupmode="layer"
     id="layer1"><g
       inkscape:label="Layer 1"
       id="layer1-3"
       transform="matrix(0.79261356,0,0,0.90151211,1.1419013,3.2863034)"><path
         id="rect16646"
         style="fill:#ffffff;stroke-width:0.264583"
         d="m 0.1009782,1.4328077 1.0448875,-0.00635 -0.01092,1.5628359 0.067413,0.00648 0.01937,0.1715472 L 0.00218,3.1657808 0,2.9807625 0.088703,2.9768525 Z"
         sodipodi:nodetypes="ccccccccc" /><path
         id="rect16961"
         style="fill:#ffffff;stroke-width:0.264583"
         d="m 0.1272465,0.94699769 c 0,0 0.44042271,-2.13074479 0.9783012,0 V 1.2308378 H 0.1272465 Z"
         sodipodi:nodetypes="ccccc" /></g><path
       style="fill:#8f6238;fill-opacity:1;stroke:none;stroke-width:0.1;stroke-linecap:butt;stroke-linejoin:miter;stroke-dasharray:none;stroke-opacity:1"
       d="m 0.81965608,4.1834707 c 0,0 0.23101322,-0.8019986 0.1777441,-1.1500646 C 1.7583709,2.1659151 1.6634216,1.5518686 1.6634216,1.5518686 c 0,0 0.5179191,0.5766189 0.4033345,1.6792606 C 2.3466631,3.0535055 2.3464204,2.651057 2.3464204,2.651057 2.6226221,3.3694498 2.4395352,4.1962723 2.4395352,4.1962723 3.4705938,3.8025116 3.1107723,2.3633888 3.1107723,2.3633888 2.9301715,1.8858103 3.1890535,1.442039 3.1890535,1.442039 c 0,0 -0.3768425,-0.1991157 -0.6068129,0.5578829 0,0 -0.071523,-0.7772592 -0.6000342,-1.3728031 C 1.802576,0.506071 2.0867194,0 2.0867194,0 c 0,0 -1.42388982,0.4126007 -1.43812022,2.3187329 -0.341696,-0.1789283 -0.3245305,-0.8631206 -0.3245305,-0.8631206 0,0 -0.9921746,1.3828526 0.4955874,2.7278584 z"
       id="path8308"
       sodipodi:nodetypes="cccccccccccccc" /></g></svg>
