<?xml version="1.0" encoding="UTF-8" standalone="no"?>
<!-- Created with Inkscape (http://www.inkscape.org/) -->

<svg
   width="3.8298306mm"
   height="7.669229mm"
   viewBox="0 0 3.8298306 7.669229"
   version="1.1"
   id="svg46271"
   xml:space="preserve"
   inkscape:version="1.2.1 (9c6d41e410, 2022-07-14, custom)"
   sodipodi:docname="LongPoison.svg"
   xmlns:inkscape="http://www.inkscape.org/namespaces/inkscape"
   xmlns:sodipodi="http://sodipodi.sourceforge.net/DTD/sodipodi-0.dtd"
   xmlns="http://www.w3.org/2000/svg"
   xmlns:svg="http://www.w3.org/2000/svg"><sodipodi:namedview
     id="namedview46273"
     pagecolor="#505050"
     bordercolor="#eeeeee"
     borderopacity="1"
     inkscape:showpageshadow="0"
     inkscape:pageopacity="0"
     inkscape:pagecheckerboard="0"
     inkscape:deskcolor="#505050"
     inkscape:document-units="mm"
     showgrid="false"
     inkscape:zoom="20.70196"
     inkscape:cx="16.085434"
     inkscape:cy="18.597273"
     inkscape:window-width="1247"
     inkscape:window-height="1367"
     inkscape:window-x="24"
     inkscape:window-y="24"
     inkscape:window-maximized="1"
     inkscape:current-layer="layer1" /><defs
     id="defs46268" /><g
     inkscape:label="Layer 1"
     inkscape:groupmode="layer"
     id="layer1"><g
       inkscape:label="Layer 1"
       id="layer1-7"
       transform="translate(1.3093413)"><path
         id="rect32291"
         style="fill:#ffffff;stroke-width:0.0499999"
         d="m 0.1034561,2.3042404 0.09706,-0.138941 -8.931e-4,-0.3785143 0.7790749,0.00305 0.00998,0.3749556 0.1043387,0.1394479 v 2.2623012 l 0.096412,-0.00389 0.010071,0.3194068 L 0,4.8834366 0.00699,4.5751818 0.10345,4.5665418 Z"
         sodipodi:nodetypes="ccccccccccccc" /><path
         id="rect33746"
         style="fill:#ffffff;stroke-width:0.0499999"
         d="m 0.236675,0.877742 c 0,0 0.31338846,-1.9749195 0.7254728,0 V 1.6242209 H 0.236675 Z"
         sodipodi:nodetypes="ccccc" /></g><g
       inkscape:label="Layer 1"
       id="layer1-0"
       transform="matrix(1.0951052,0,0,1.1309852,0,0.7362219)"><path
         style="fill:#4a7f1e;fill-opacity:1;stroke:none;stroke-width:0.05;stroke-linecap:butt;stroke-linejoin:miter;stroke-dasharray:none;stroke-opacity:1"
         d="m 0.92999596,1.4004945 c -0.4974665,-0.055123 -0.8896226,0.7326532 -0.8896226,0.7326532 -0.063333,0.6700599 -0.033218,0.8611383 -0.033218,0.8611383 0.082551,0.6436157 0.3098748,0.9998406 0.3098748,0.9998406 -0.31736499643,0.3221585 0.061014,0.5371732 0.061014,0.5371732 0.66477034,0.067098 0.67041634,0.3702209 0.67041634,0.3702209 -0.015043,0.422503 0.3598061,0.3484932 0.3598061,0.3484932 l 0.6264738,-0.027509 c 0,0 0.3237975,0.1138866 0.3482806,-0.3080454 C 2.4690794,4.674364 2.7712565,4.5626733 2.7712565,4.5626733 3.4410785,4.7708572 3.1437282,4.0860455 3.1437282,4.0860455 3.1147565,3.9995277 3.2334765,3.715995 3.2334765,3.715995 4.0954146,1.8456031 2.5687966,1.3684782 2.5687966,1.3684782 l 0.013693,1.8286282 c 0.6455095,0.9029532 0.021955,0.9320972 0.021955,0.9320972 L 2.0433144,3.9747399 1.4830403,3.9790462 0.84495718,4.1449581 c 0,0 -0.66864948,-0.078751 0.07564,-0.9788809 z"
         id="path16195"
         sodipodi:nodetypes="cccccccccccccccccccc" /><path
         style="fill:#4a7f1e;fill-opacity:1;stroke:none;stroke-width:0.264583px;stroke-linecap:butt;stroke-linejoin:miter;stroke-opacity:1"
         d="M 0.65746546,4.8676155 0.70043376,5.626295 1.371415,6.1300598 2.0507473,6.0942246 2.5659508,5.7779957 2.7350621,4.9181073 2.506015,5.0050909 2.4822925,5.3064439 2.1584962,5.538302 1.2920045,5.5462104 0.98116616,5.4129988 0.80371256,4.8657965 Z"
         id="path18632" /></g></g></svg>
