<?xml version="1.0" encoding="UTF-8" standalone="no"?>
<!-- Created with Inkscape (http://www.inkscape.org/) -->

<svg
   width="3.6923325mm"
   height="7.7813749mm"
   viewBox="0 0 3.6923325 7.7813749"
   version="1.1"
   id="svg41591"
   xml:space="preserve"
   inkscape:version="1.2.1 (9c6d41e410, 2022-07-14, custom)"
   sodipodi:docname="LongIncendiary.svg"
   xmlns:inkscape="http://www.inkscape.org/namespaces/inkscape"
   xmlns:sodipodi="http://sodipodi.sourceforge.net/DTD/sodipodi-0.dtd"
   xmlns="http://www.w3.org/2000/svg"
   xmlns:svg="http://www.w3.org/2000/svg"><sodipodi:namedview
     id="namedview41593"
     pagecolor="#505050"
     bordercolor="#eeeeee"
     borderopacity="1"
     inkscape:showpageshadow="0"
     inkscape:pageopacity="0"
     inkscape:pagecheckerboard="0"
     inkscape:deskcolor="#505050"
     inkscape:document-units="mm"
     showgrid="false"
     inkscape:zoom="7.319248"
     inkscape:cx="27.325211"
     inkscape:cy="51.508024"
     inkscape:window-width="1247"
     inkscape:window-height="1367"
     inkscape:window-x="24"
     inkscape:window-y="24"
     inkscape:window-maximized="1"
     inkscape:current-layer="layer1" /><defs
     id="defs41588" /><g
     inkscape:label="Layer 1"
     inkscape:groupmode="layer"
     id="layer1"><g
       inkscape:label="Layer 1"
       id="layer1-2"
       transform="translate(1.3348507,2.8979384)"><path
         id="rect32291"
         style="fill:#ffffff;stroke-width:0.0499999"
         d="m 0.1034561,2.3042404 0.09706,-0.138941 -8.931e-4,-0.3785143 0.7790749,0.00305 0.00998,0.3749556 0.1043387,0.1394479 v 2.2623012 l 0.096412,-0.00389 0.010071,0.3194068 L 0,4.8834366 0.00699,4.5751818 0.10345,4.5665418 Z"
         sodipodi:nodetypes="ccccccccccccc" /><path
         id="rect33746"
         style="fill:#ffffff;stroke-width:0.0499999"
         d="m 0.236675,0.877742 c 0,0 0.31338846,-1.9749195 0.7254728,0 V 1.6242209 H 0.236675 Z"
         sodipodi:nodetypes="ccccc" /></g><path
       style="fill:#9e6c3e;fill-opacity:1;stroke:none;stroke-width:0.05;stroke-linecap:butt;stroke-linejoin:miter;stroke-dasharray:none;stroke-opacity:1"
       d="M 1.1236094,4.8039682 C 1.0886777,2.2651079 1.8875401,2.2196428 1.8875401,2.2196428 c 0.113644,-0.011273 0.013327,-0.5082447 0.013327,-0.5082447 0,0 0.5633661,0.5021922 0.6871566,1.6314589 C 2.6765047,3.331528 2.7507117,3.0599214 2.7507117,3.0599214 3.0077442,3.4299111 2.6813229,4.8669922 2.6813229,4.8669922 3.9096148,4.729038 3.6371291,2.5934232 3.6371291,2.5934232 3.3961522,2.170619 3.6923326,1.5858369 3.6923326,1.5858369 c 0,0 -0.590228,0.029286 -0.6678896,0.6150245 0,0 -0.247864,-0.8387912 -0.6850158,-1.4043065 C 2.2040108,0.7022319 2.4022112,0 2.4022112,0 c 0,0 -1.63755154,0.5249476 -1.59377374,2.6408465 -0.4458703,-0.057561 -0.4178599,-1.0355926 -0.4178599,-1.0355926 0,0 -1.2544796,2.4027771 0.73303184,3.1987143 z"
       id="path42459"
       sodipodi:nodetypes="cccccccccccccc" /></g></svg>
