<?xml version="1.0" encoding="UTF-8" standalone="no"?>
<!-- Created with Inkscape (http://www.inkscape.org/) -->

<svg
   width="4.7013726mm"
   height="7.4047232mm"
   viewBox="0 0 4.7013726 7.4047232"
   version="1.1"
   id="svg5"
   xml:space="preserve"
   inkscape:version="1.2.1 (9c6d41e410, 2022-07-14, custom)"
   sodipodi:docname="LongExplosive.svg"
   xmlns:inkscape="http://www.inkscape.org/namespaces/inkscape"
   xmlns:sodipodi="http://sodipodi.sourceforge.net/DTD/sodipodi-0.dtd"
   xmlns="http://www.w3.org/2000/svg"
   xmlns:svg="http://www.w3.org/2000/svg"><sodipodi:namedview
     id="namedview7"
     pagecolor="#505050"
     bordercolor="#eeeeee"
     borderopacity="1"
     inkscape:showpageshadow="0"
     inkscape:pageopacity="0"
     inkscape:pagecheckerboard="0"
     inkscape:deskcolor="#505050"
     inkscape:document-units="mm"
     showgrid="false"
     inkscape:zoom="7.319248"
     inkscape:cx="32.653628"
     inkscape:cy="57.656196"
     inkscape:window-width="1247"
     inkscape:window-height="1367"
     inkscape:window-x="24"
     inkscape:window-y="24"
     inkscape:window-maximized="1"
     inkscape:current-layer="layer1" /><defs
     id="defs2" /><g
     inkscape:label="Layer 1"
     inkscape:groupmode="layer"
     id="layer1"><g
       inkscape:label="Layer 1"
       id="layer1-3"
       transform="translate(1.7605435,2.5212864)"><path
         id="rect32291"
         style="fill:#ffffff;stroke-width:0.0499999"
         d="m 0.1034561,2.3042404 0.09706,-0.138941 -8.931e-4,-0.3785143 0.7790749,0.00305 0.00998,0.3749556 0.1043387,0.1394479 v 2.2623012 l 0.096412,-0.00389 0.010071,0.3194068 L 0,4.8834366 0.00699,4.5751818 0.10345,4.5665418 Z"
         sodipodi:nodetypes="ccccccccccccc" /><path
         id="rect33746"
         style="fill:#ffffff;stroke-width:0.0499999"
         d="m 0.236675,0.877742 c 0,0 0.31338846,-1.9749195 0.7254728,0 V 1.6242209 H 0.236675 Z"
         sodipodi:nodetypes="ccccc" /></g><path
       style="fill:#918239;fill-opacity:1;stroke:none;stroke-width:0.264583px;stroke-linecap:butt;stroke-linejoin:miter;stroke-opacity:1"
       d="M 1.6810556,4.5666718 C 1.6148206,3.0951256 1.8799233,2.6956449 1.8799233,2.6956449 L 0.4311212,1.254297 1.4343954,3.5503313 1.3958345,3.7343823 0,2.6896915 1.4074415,4.3128544 1.0799847,4.7761025 Z"
       id="path365"
       sodipodi:nodetypes="ccccccccc" /><path
       style="fill:#918239;fill-opacity:1;stroke:none;stroke-width:0.264583px;stroke-linecap:butt;stroke-linejoin:miter;stroke-opacity:1"
       d="m 1.9499104,2.3431627 c 0,0 0.3888045,-0.6231427 0.8393448,0.00262 L 2.3637611,0 Z"
       id="path2163"
       sodipodi:nodetypes="cccc" /><path
       style="fill:#918239;fill-opacity:1;stroke:none;stroke-width:0.264583px;stroke-linecap:butt;stroke-linejoin:miter;stroke-opacity:1"
       d="M 2.8723458,2.7786513 4.2980181,1.2698143 3.2343169,3.6847666 4.7013725,2.7173531 3.3120817,4.3576949 3.6282262,4.7981735 3.0205669,4.5582954 C 3.0676651,2.9805875 2.8723458,2.7786513 2.8723458,2.7786513 Z"
       id="path2165"
       sodipodi:nodetypes="cccccccc" /></g></svg>
