<?xml version="1.0" encoding="UTF-8" standalone="no"?>
<!-- Created with Inkscape (http://www.inkscape.org/) -->

<svg
   width="3.6942053mm"
   height="7.4475436mm"
   viewBox="0 0 3.6942053 7.4475436"
   version="1.1"
   id="svg53477"
   xml:space="preserve"
   inkscape:version="1.2.1 (9c6d41e410, 2022-07-14, custom)"
   sodipodi:docname="MediumPoison.svg"
   xmlns:inkscape="http://www.inkscape.org/namespaces/inkscape"
   xmlns:sodipodi="http://sodipodi.sourceforge.net/DTD/sodipodi-0.dtd"
   xmlns="http://www.w3.org/2000/svg"
   xmlns:svg="http://www.w3.org/2000/svg"><sodipodi:namedview
     id="namedview53479"
     pagecolor="#505050"
     bordercolor="#eeeeee"
     borderopacity="1"
     inkscape:showpageshadow="0"
     inkscape:pageopacity="0"
     inkscape:pagecheckerboard="0"
     inkscape:deskcolor="#505050"
     inkscape:document-units="mm"
     showgrid="false"
     inkscape:zoom="5.1754899"
     inkscape:cx="45.406329"
     inkscape:cy="79.60599"
     inkscape:window-width="1247"
     inkscape:window-height="1367"
     inkscape:window-x="24"
     inkscape:window-y="24"
     inkscape:window-maximized="1"
     inkscape:current-layer="layer1" /><defs
     id="defs53474" /><g
     inkscape:label="Layer 1"
     inkscape:groupmode="layer"
     id="layer1"><g
       inkscape:label="Layer 1"
       id="layer1-6"
       transform="translate(1.1863756)"><path
         id="rect47993"
         style="fill:#ffffff;stroke-width:0.0499999"
         d="M 0.1037902,1.6903613 0.2301543,1.575913 0.2277243,1.1950511 1.1177858,1.1960005 1.1175911,1.5823209 1.1984331,1.7000756 1.2034731,3.8762212 1.3466517,3.8760328 1.3457589,4.2344787 0,4.2391187 0.00599,3.8762251 h 0.097803 z"
         sodipodi:nodetypes="ccccccccccccc" /><path
         id="rect47996"
         style="fill:#ffffff;stroke-width:0.0499999"
         d="m 0.2357022,0.54437947 c 0,0 0.38468617,-1.2248538 0.900241,0 v 0.4495282 h -0.900241 z"
         sodipodi:nodetypes="ccccc" /></g><path
       style="fill:#4c881c;fill-opacity:1;stroke:none;stroke-width:0.264583px;stroke-linecap:butt;stroke-linejoin:miter;stroke-opacity:1"
       d="M 0.8100954,2.2914674 C 0.1951753,2.3547424 0.028048,3.2360854 0.028048,3.2360854 L 0,3.9846221 c 0,0 0.069752,0.8539743 0.310002,0.9251426 0,0 0.099207,0.2610731 -0.088205,0.4414186 0,0 -0.099734,0.3393715 0.3396102,0.395686 l 0.3086615,-0.00541 c 0,0 0.305938,0.2030534 0.261529,0.2945312 0,0 -0.08889,0.3630698 0.3746342,0.4154841 l 0.6853486,-0.00167 C 2.6343707,6.569052 2.5499613,6.0348452 2.5499613,6.0348452 2.5574348,5.8765897 2.8375684,5.7625133 2.8375684,5.7625133 3.6296307,5.8576449 3.4395354,5.2656237 3.4395354,5.2656237 3.3624673,5.051255 3.5718898,4.6281774 3.5718898,4.6281774 3.6962898,4.6419494 3.6942032,3.9604463 3.6942032,3.9604463 L 3.6888032,3.125933 C 3.6994466,2.5301208 2.9031287,2.3251195 2.9031287,2.3251195 l -0.013923,1.3401434 c 0,0 0.1675378,0.1156523 0.1295675,0.2671872 l 0.026693,0.4855727 c 0,0 0.389269,0.3714753 -0.026085,0.8123603 0,0 -0.7065598,-0.00222 -0.9354116,-0.3902663 l -0.4538546,0.00791 c 0,0 -0.1883627,0.4054186 -0.9465284,0.3997852 0,0 -0.3142943,-0.2472666 7.409e-4,-0.7857141 0,0 0.020921,-0.6612496 0.1185851,-0.759293 z"
       id="path54345"
       sodipodi:nodetypes="ccccccccccccccccccccccccccc" /><path
       style="fill:#4c881c;fill-opacity:1;stroke:none;stroke-width:0.264583px;stroke-linecap:butt;stroke-linejoin:miter;stroke-opacity:1"
       d="M 0.7482962,6.096726 0.9168477,6.11254 0.9994199,6.5023872 1.3748869,6.8192903 2.3587347,6.8469673 2.7194052,6.5207856 2.8316444,6.0945633 2.9946716,6.0757461 2.886034,6.8744798 2.2201809,7.4467762 1.5350453,7.4475435 0.7721645,6.7792076 Z"
       id="path56067" /></g></svg>
