<?xml version="1.0" encoding="UTF-8" standalone="no"?>
<!-- Created with Inkscape (http://www.inkscape.org/) -->

<svg
   width="4.611258mm"
   height="6.7206631mm"
   viewBox="0 0 4.611258 6.7206631"
   version="1.1"
   id="svg54087"
   xml:space="preserve"
   inkscape:version="1.2.1 (9c6d41e410, 2022-07-14, custom)"
   sodipodi:docname="MediumExplosive.svg"
   xmlns:inkscape="http://www.inkscape.org/namespaces/inkscape"
   xmlns:sodipodi="http://sodipodi.sourceforge.net/DTD/sodipodi-0.dtd"
   xmlns="http://www.w3.org/2000/svg"
   xmlns:svg="http://www.w3.org/2000/svg"><sodipodi:namedview
     id="namedview54089"
     pagecolor="#505050"
     bordercolor="#eeeeee"
     borderopacity="1"
     inkscape:showpageshadow="0"
     inkscape:pageopacity="0"
     inkscape:pagecheckerboard="0"
     inkscape:deskcolor="#505050"
     inkscape:document-units="mm"
     showgrid="false"
     inkscape:zoom="7.319248"
     inkscape:cx="23.363056"
     inkscape:cy="52.191154"
     inkscape:window-width="1247"
     inkscape:window-height="1367"
     inkscape:window-x="24"
     inkscape:window-y="24"
     inkscape:window-maximized="1"
     inkscape:current-layer="layer1" /><defs
     id="defs54084" /><g
     inkscape:label="Layer 1"
     inkscape:groupmode="layer"
     id="layer1"><g
       inkscape:label="Layer 1"
       id="layer1-3"
       transform="translate(1.6479878,2.4815444)"><path
         id="rect47993"
         style="fill:#ffffff;stroke-width:0.0499999"
         d="M 0.1037902,1.6903613 0.2301543,1.575913 0.2277243,1.1950511 1.1177858,1.1960005 1.1175911,1.5823209 1.1984331,1.7000756 1.2034731,3.8762212 1.3466517,3.8760328 1.3457589,4.2344787 0,4.2391187 0.00599,3.8762251 h 0.097803 z"
         sodipodi:nodetypes="ccccccccccccc" /><path
         id="rect47996"
         style="fill:#ffffff;stroke-width:0.0499999"
         d="m 0.2357022,0.54437947 c 0,0 0.38468617,-1.2248538 0.900241,0 v 0.4495282 h -0.900241 z"
         sodipodi:nodetypes="ccccc" /></g><path
       style="fill:#938239;fill-opacity:1;stroke:none;stroke-width:0.05;stroke-linecap:butt;stroke-linejoin:miter;stroke-dasharray:none;stroke-opacity:1"
       d="M 1.4081222,4.567267 C 1.5234193,2.8300335 1.7137718,2.6218707 1.7137718,2.6218707 L 0.4450597,1.2377479 1.3302617,3.5638831 0,2.6555593 1.2937979,4.1894848 1.0083484,4.7499144 Z"
       id="path54955"
       sodipodi:nodetypes="cccccccc" /><path
       style="fill:#938239;fill-opacity:1;stroke:none;stroke-width:0.05;stroke-linecap:butt;stroke-linejoin:miter;stroke-dasharray:none;stroke-opacity:1"
       d="m 1.9478174,2.2346241 c 0,0 0.4351562,-0.4328774 0.7716264,-0.00519 L 2.3615046,0 Z"
       id="path56355"
       sodipodi:nodetypes="cccc" /><path
       style="fill:#938239;fill-opacity:1;stroke:none;stroke-width:0.05;stroke-linecap:butt;stroke-linejoin:miter;stroke-dasharray:none;stroke-opacity:1"
       d="m 2.9471317,2.5395649 c 0,0 0.1814792,-0.00716 0.2872349,2.0339804 L 3.6395217,4.7229785 3.3168155,4.3029271 4.6112582,2.7431022 3.2831944,3.5409612 4.292371,1.2221112 Z"
       id="path56357"
       sodipodi:nodetypes="cccccccc" /></g></svg>
