<?xml version="1.0" encoding="UTF-8" standalone="no"?>
<!-- Created with Inkscape (http://www.inkscape.org/) -->

<svg
   width="3.8426697mm"
   height="6.9031119mm"
   viewBox="0 0 3.8426697 6.9031119"
   version="1.1"
   id="svg50202"
   xml:space="preserve"
   inkscape:version="1.2.1 (9c6d41e410, 2022-07-14, custom)"
   sodipodi:docname="MediumDumDum.svg"
   xmlns:inkscape="http://www.inkscape.org/namespaces/inkscape"
   xmlns:sodipodi="http://sodipodi.sourceforge.net/DTD/sodipodi-0.dtd"
   xmlns="http://www.w3.org/2000/svg"
   xmlns:svg="http://www.w3.org/2000/svg"><sodipodi:namedview
     id="namedview50204"
     pagecolor="#505050"
     bordercolor="#eeeeee"
     borderopacity="1"
     inkscape:showpageshadow="0"
     inkscape:pageopacity="0"
     inkscape:pagecheckerboard="0"
     inkscape:deskcolor="#505050"
     inkscape:document-units="mm"
     showgrid="false"
     inkscape:lockguides="true"
     inkscape:zoom="20.70196"
     inkscape:cx="10.723622"
     inkscape:cy="22.606556"
     inkscape:window-width="1247"
     inkscape:window-height="1367"
     inkscape:window-x="24"
     inkscape:window-y="24"
     inkscape:window-maximized="1"
     inkscape:current-layer="layer1" /><defs
     id="defs50199" /><g
     inkscape:label="Layer 1"
     inkscape:groupmode="layer"
     id="layer1"><g
       inkscape:label="Layer 1"
       id="layer1-9"
       transform="translate(1.0907755,2.6639932)"
       style="stroke:none"><path
         id="rect47993"
         style="fill:#ffffff;stroke:none;stroke-width:0.0499999"
         d="M 0.1037902,1.6903613 0.2301543,1.575913 0.2277243,1.1950511 1.1177858,1.1960005 1.1175911,1.5823209 1.1984331,1.7000756 1.2034731,3.8762212 1.3466517,3.8760328 1.3457589,4.2344787 0,4.2391187 0.00599,3.8762251 h 0.097803 z"
         sodipodi:nodetypes="ccccccccccccc" /><path
         id="rect47996"
         style="fill:#ffffff;stroke:none;stroke-width:0.0499999"
         d="m 0.2357022,0.54437947 c 0,0 0.38468617,-1.2248538 0.900241,0 v 0.4495282 h -0.900241 z"
         sodipodi:nodetypes="ccccc" /></g><path
       style="fill:#902c2b;fill-opacity:1;stroke:none;stroke-width:0.05;stroke-linecap:butt;stroke-linejoin:miter;stroke-dasharray:none;stroke-opacity:1"
       d="M 0.0863735,3.6503209 C 0.771005,1.6525118 1.8270426,1.2412833 1.8270426,1.2412833 2.8202918,1.7966369 3.2750053,3.621776 3.2750053,3.621776 3.6698928,2.6789073 2.3141783,0.92497091 2.3141783,0.92497091 2.3517775,0.65957971 3.8426697,0.45442491 3.8426697,0.45442491 3.0923238,-0.22729639 1.8784874,0.56932111 1.8784874,0.56932111 0.0303918,-0.78194175 0,0.69629821 0,0.69629821 c 0,0 0.529782,-0.6485763 1.4070372,0.045174 0,0 -1.0356941,0.85906429 -1.3206637,2.90884869 z"
       id="path51433"
       sodipodi:nodetypes="ccccccccc" /></g></svg>
