<?xml version="1.0" encoding="UTF-8" standalone="no"?>
<!-- Created with Inkscape (http://www.inkscape.org/) -->

<svg
   width="3.3620555mm"
   height="7.0666733mm"
   viewBox="0 0 3.3620555 7.0666733"
   version="1.1"
   id="svg46983"
   xml:space="preserve"
   inkscape:version="1.2.1 (9c6d41e410, 2022-07-14, custom)"
   sodipodi:docname="MediumIncendiary.svg"
   xmlns:inkscape="http://www.inkscape.org/namespaces/inkscape"
   xmlns:sodipodi="http://sodipodi.sourceforge.net/DTD/sodipodi-0.dtd"
   xmlns="http://www.w3.org/2000/svg"
   xmlns:svg="http://www.w3.org/2000/svg"><sodipodi:namedview
     id="namedview46985"
     pagecolor="#505050"
     bordercolor="#eeeeee"
     borderopacity="1"
     inkscape:showpageshadow="0"
     inkscape:pageopacity="0"
     inkscape:pagecheckerboard="0"
     inkscape:deskcolor="#505050"
     inkscape:document-units="mm"
     showgrid="false"
     inkscape:zoom="5.1754899"
     inkscape:cx="71.297598"
     inkscape:cy="82.311048"
     inkscape:window-width="1247"
     inkscape:window-height="1367"
     inkscape:window-x="24"
     inkscape:window-y="24"
     inkscape:window-maximized="1"
     inkscape:current-layer="layer1" /><defs
     id="defs46980" /><g
     inkscape:label="Layer 1"
     inkscape:groupmode="layer"
     id="layer1"><g
       inkscape:label="Layer 1"
       id="layer1-3"
       transform="translate(1.0492419,2.8275547)"><path
         id="rect47993"
         style="fill:#ffffff;stroke-width:0.0499999"
         d="M 0.1037902,1.6903613 0.2301543,1.575913 0.2277243,1.1950511 1.1177858,1.1960005 1.1175911,1.5823209 1.1984331,1.7000756 1.2034731,3.8762212 1.3466517,3.8760328 1.3457589,4.2344787 0,4.2391187 0.00599,3.8762251 h 0.097803 z"
         sodipodi:nodetypes="ccccccccccccc" /><path
         id="rect47996"
         style="fill:#ffffff;stroke-width:0.0499999"
         d="m 0.2357022,0.54437947 c 0,0 0.38468617,-1.2248538 0.900241,0 v 0.4495282 h -0.900241 z"
         sodipodi:nodetypes="ccccc" /></g><path
       style="fill:#a46f43;fill-opacity:1;stroke:none;stroke-width:0.264583px;stroke-linecap:butt;stroke-linejoin:miter;stroke-opacity:1"
       d="m 0.84153704,4.3860919 c 0,0 -0.028607,-1.6570365 0.83916946,-2.1408228 0.121053,0.00157 0.037466,-0.684525 0.037466,-0.684525 0,0 0.2826124,0.2972429 0.3663387,0.7541527 0,0 0.042561,0.658472 0.438323,0.6392645 0,0 -0.064803,1.2526277 0.038101,1.5115334 0,0 0.6608319,-0.1858429 0.7177609,-0.917152 C 3.4723372,3.0827865 3.2679382,2.3296412 3.2679382,2.3296412 3.1187663,2.0370604 3.3442368,1.5104367 3.3442368,1.5104367 2.9643912,1.3983771 2.7500552,1.9957926 2.7500552,1.9957926 c 0,0 -0.3122611,-0.8940224 -0.6592126,-1.2502026 C 1.9957266,0.4203107 2.1733226,0 2.1733226,0 0.67302604,0.3138182 0.72403114,2.4956773 0.72403114,2.4956773 0.39279884,2.2697534 0.36948704,1.4911245 0.36948704,1.4911245 c -1.0501976,2.1687519 0.47205,2.8949674 0.47205,2.8949674 z"
       id="path48214"
       sodipodi:nodetypes="ccccccccccccccc" /></g></svg>
