<?xml version="1.0" encoding="UTF-8" standalone="no"?>
<!-- Created with Inkscape (http://www.inkscape.org/) -->

<svg
   width="3.84267mm"
   height="7.3894415mm"
   viewBox="0 0 3.84267 7.3894415"
   version="1.1"
   id="svg69671"
   xml:space="preserve"
   inkscape:version="1.2.1 (9c6d41e410, 2022-07-14, custom)"
   sodipodi:docname="NitroShredder.svg"
   xmlns:inkscape="http://www.inkscape.org/namespaces/inkscape"
   xmlns:sodipodi="http://sodipodi.sourceforge.net/DTD/sodipodi-0.dtd"
   xmlns="http://www.w3.org/2000/svg"
   xmlns:svg="http://www.w3.org/2000/svg"><sodipodi:namedview
     id="namedview69673"
     pagecolor="#505050"
     bordercolor="#eeeeee"
     borderopacity="1"
     inkscape:showpageshadow="0"
     inkscape:pageopacity="0"
     inkscape:pagecheckerboard="0"
     inkscape:deskcolor="#505050"
     inkscape:document-units="mm"
     showgrid="false"
     inkscape:zoom="7.319248"
     inkscape:cx="22.953178"
     inkscape:cy="57.792822"
     inkscape:window-width="1247"
     inkscape:window-height="1367"
     inkscape:window-x="24"
     inkscape:window-y="24"
     inkscape:window-maximized="1"
     inkscape:current-layer="layer1" /><defs
     id="defs69668" /><g
     inkscape:label="Layer 1"
     inkscape:groupmode="layer"
     id="layer1"><g
       inkscape:label="Layer 1"
       id="layer1-6"
       transform="translate(1.1645215,2.5422372)"><path
         id="rect61035"
         style="fill:#ffffff;fill-opacity:1;stroke-width:0.0499999;stop-color:#000000"
         d="m 0.109373,1.0847531 h 1.0159672 v 3.5471926 l 0.056464,-0.00627 0.013756,0.2092535 L 0,4.8472042 0.00293,4.6319486 h 0.1064448 z"
         sodipodi:nodetypes="ccccccccc" /><path
         id="rect61401"
         style="fill:#ffffff;stroke-width:0.0565895;stop-color:#000000"
         d="m 0.1109842,0.47552591 c 0,0 0.49044306,-1.0699333 1.0158661,0 v 0.4307889 H 0.1109842 Z"
         sodipodi:nodetypes="ccccc" /></g><path
       style="fill:#902c2b;fill-opacity:1;stroke:none;stroke-width:0.05;stroke-linecap:butt;stroke-linejoin:miter;stroke-dasharray:none;stroke-opacity:1"
       d="M 0.0863735,3.650321 C 0.771005,1.6525118 1.8270426,1.2412833 1.8270426,1.2412833 2.8202918,1.7966369 3.2750053,3.621776 3.2750053,3.621776 3.669893,2.678907 2.3141783,0.92497093 2.3141783,0.92497093 2.3517775,0.65957973 3.84267,0.45442493 3.84267,0.45442493 3.0923238,-0.22729637 1.8784874,0.56932113 1.8784874,0.56932113 0.0303918,-0.78194177 0,0.69629823 0,0.69629823 c 0,0 0.529782,-0.6485763 1.4070372,0.045174 0,0 -1.0356941,0.85906427 -1.3206637,2.90884877 z"
       id="path51433"
       sodipodi:nodetypes="ccccccccc" /></g></svg>
