<?xml version="1.0" encoding="UTF-8" standalone="no"?>
<!-- Created with Inkscape (http://www.inkscape.org/) -->

<svg
   width="4.5848265mm"
   height="7.3004985mm"
   viewBox="0 0 4.5848265 7.3004985"
   version="1.1"
   id="svg65087"
   xml:space="preserve"
   inkscape:version="1.2.1 (9c6d41e410, 2022-07-14, custom)"
   sodipodi:docname="NitroExplosive.svg"
   xmlns:inkscape="http://www.inkscape.org/namespaces/inkscape"
   xmlns:sodipodi="http://sodipodi.sourceforge.net/DTD/sodipodi-0.dtd"
   xmlns="http://www.w3.org/2000/svg"
   xmlns:svg="http://www.w3.org/2000/svg"><sodipodi:namedview
     id="namedview65089"
     pagecolor="#505050"
     bordercolor="#eeeeee"
     borderopacity="1"
     inkscape:showpageshadow="0"
     inkscape:pageopacity="0"
     inkscape:pagecheckerboard="0"
     inkscape:deskcolor="#505050"
     inkscape:document-units="mm"
     showgrid="false"
     inkscape:zoom="3.659624"
     inkscape:cx="51.917902"
     inkscape:cy="87.713929"
     inkscape:window-width="1247"
     inkscape:window-height="1367"
     inkscape:window-x="24"
     inkscape:window-y="24"
     inkscape:window-maximized="1"
     inkscape:current-layer="layer1" /><defs
     id="defs65084" /><g
     inkscape:label="Layer 1"
     inkscape:groupmode="layer"
     id="layer1"><g
       inkscape:label="Layer 1"
       id="layer1-0"
       transform="translate(1.7112127,2.4532943)"><path
         id="rect61035"
         style="fill:#ffffff;fill-opacity:1;stroke-width:0.0499999;stop-color:#000000"
         d="m 0.109373,1.0847531 h 1.0159672 v 3.5471926 l 0.056464,-0.00627 0.013756,0.2092535 L 0,4.8472042 0.00293,4.6319486 h 0.1064448 z"
         sodipodi:nodetypes="ccccccccc" /><path
         id="rect61401"
         style="fill:#ffffff;stroke-width:0.0565895;stop-color:#000000"
         d="m 0.1109842,0.47552591 c 0,0 0.49044306,-1.0699333 1.0158661,0 v 0.4307889 H 0.1109842 Z"
         sodipodi:nodetypes="ccccc" /></g><path
       style="fill:#a08d42;fill-opacity:1;stroke:none;stroke-width:0.264583px;stroke-linecap:butt;stroke-linejoin:miter;stroke-opacity:1"
       d="M 1.547531,4.4087801 C 1.3830481,2.6055335 1.6927205,2.4922284 1.6927205,2.4922284 L 0.3763737,1.1752523 1.3161904,3.2740306 1.3003763,3.5697028 0,2.6179105 1.3979189,4.2242303 1.0634863,4.696188 Z"
       id="path65955"
       sodipodi:nodetypes="ccccccccc" /><path
       style="fill:#a08d42;fill-opacity:1;stroke:none;stroke-width:0.264583px;stroke-linecap:butt;stroke-linejoin:miter;stroke-opacity:1"
       d="m 1.948661,2.2248937 c 0,0 0.4453393,-0.3070311 0.7693927,0.014052 L 2.361284,0 Z"
       id="path67424"
       sodipodi:nodetypes="cccc" /><path
       style="fill:#a08d42;fill-opacity:1;stroke:none;stroke-width:0.264583px;stroke-linecap:butt;stroke-linejoin:miter;stroke-opacity:1"
       d="m 2.9580046,2.5152617 c 0,0 0.222995,0.047996 0.1648944,1.9760885 L 3.6161876,4.6833359 3.2951012,4.2322266 4.5848264,2.6846146 3.3128873,3.5814066 3.3096594,3.2824341 4.2259662,1.2507033 Z"
       id="path67426"
       sodipodi:nodetypes="ccccccccc" /></g></svg>
