<?xml version="1.0" encoding="UTF-8" standalone="no"?>
<!-- Created with Inkscape (http://www.inkscape.org/) -->

<svg
   width="2.9711492mm"
   height="7.416749mm"
   viewBox="0 0 2.9711492 7.416749"
   version="1.1"
   id="svg70189"
   xml:space="preserve"
   inkscape:version="1.2.1 (9c6d41e410, 2022-07-14, custom)"
   sodipodi:docname="ShellPennyShot.svg"
   xmlns:inkscape="http://www.inkscape.org/namespaces/inkscape"
   xmlns:sodipodi="http://sodipodi.sourceforge.net/DTD/sodipodi-0.dtd"
   xmlns="http://www.w3.org/2000/svg"
   xmlns:svg="http://www.w3.org/2000/svg"><sodipodi:namedview
     id="namedview70191"
     pagecolor="#505050"
     bordercolor="#eeeeee"
     borderopacity="1"
     inkscape:showpageshadow="0"
     inkscape:pageopacity="0"
     inkscape:pagecheckerboard="0"
     inkscape:deskcolor="#505050"
     inkscape:document-units="mm"
     showgrid="false"
     inkscape:zoom="7.319248"
     inkscape:cx="37.640479"
     inkscape:cy="61.071848"
     inkscape:window-width="2510"
     inkscape:window-height="1367"
     inkscape:window-x="24"
     inkscape:window-y="24"
     inkscape:window-maximized="1"
     inkscape:current-layer="layer1" /><defs
     id="defs70186" /><g
     inkscape:label="Layer 1"
     inkscape:groupmode="layer"
     id="layer1"><g
       inkscape:label="Layer 1"
       id="layer1-7"
       transform="translate(0.74248542,3.5157603)"><path
         id="rect64118"
         style="opacity:1;vector-effect:none;fill:#ffffff;stroke-width:0.0499999;stop-color:#000000;stop-opacity:1"
         d="M 0.0748479,0 H 1.4413263 V 0.8324663 H 0.0748479 Z" /><path
         id="rect64118-1"
         style="fill:#ffffff;stroke-width:0.0907514"
         d="m 0.0748479,0.9342286 h 1.3664784 v 2.7424281 l 0.082029,-0.00141 -5.001e-4,0.224682 L 0.00351,3.9009887 0,3.6766639 h 0.074851 z"
         sodipodi:nodetypes="ccccccccc" /></g><path
       style="fill:#858785;fill-opacity:1;stroke:none;stroke-width:0.05;stroke-linecap:butt;stroke-linejoin:miter;stroke-dasharray:none;stroke-opacity:1"
       d="M 2.1598334,3.1311833 C 1.128005,3.220032 0.95093152,2.6914979 0.95093152,2.6914979 L 1.0237112,2.3404083 C 0.46238092,2.4923787 0.60049722,1.8145889 0.60049722,1.8145889 c 0,0 0.78614308,-0.86493694 1.28848718,-0.3001579 0,0 0.08498,0.4291663 -0.3933901,0.7025746 0.8790705,0.093994 0.834726,0.6422453 0.834726,0.6422453 z"
       id="path71073"
       sodipodi:nodetypes="cccccccc" /><path
       style="fill:#858785;fill-opacity:1;stroke:none;stroke-width:0.05;stroke-linecap:butt;stroke-linejoin:miter;stroke-dasharray:none;stroke-opacity:1"
       d="M 0.33121222,1.4470419 0.02097182,1.2126843 C -0.1531823,-0.00688194 0.81455122,8.574239e-7 0.81455122,8.574239e-7 L 1.0194959,0.18965866 C 1.1534143,0.96056776 0.33121222,1.4470419 0.33121222,1.4470419 Z"
       id="path72335"
       sodipodi:nodetypes="ccccc" /><path
       style="fill:#858785;fill-opacity:1;stroke:none;stroke-width:0.05;stroke-linecap:butt;stroke-linejoin:miter;stroke-dasharray:none;stroke-opacity:1"
       d="m 1.541036,0.66251236 0.00403,-0.3590874 c 0,0 0.9935552,-0.4731585 1.4260832,0.3291654 l -0.043571,0.2665653 C 2.2861486,1.4026572 1.541036,0.66251236 1.541036,0.66251236 Z"
       id="path72337"
       sodipodi:nodetypes="ccccc" /></g></svg>
