<?xml version="1.0" encoding="UTF-8" standalone="no"?>
<!-- Created with Inkscape (http://www.inkscape.org/) -->

<svg
   width="4.3523016mm"
   height="8.2473221mm"
   viewBox="0 0 4.3523016 8.2473221"
   version="1.1"
   id="svg65663"
   xml:space="preserve"
   inkscape:version="1.2.1 (9c6d41e410, 2022-07-14, custom)"
   sodipodi:docname="ShellDragonBreath.svg"
   xmlns:inkscape="http://www.inkscape.org/namespaces/inkscape"
   xmlns:sodipodi="http://sodipodi.sourceforge.net/DTD/sodipodi-0.dtd"
   xmlns="http://www.w3.org/2000/svg"
   xmlns:svg="http://www.w3.org/2000/svg"><sodipodi:namedview
     id="namedview65665"
     pagecolor="#505050"
     bordercolor="#eeeeee"
     borderopacity="1"
     inkscape:showpageshadow="0"
     inkscape:pageopacity="0"
     inkscape:pagecheckerboard="0"
     inkscape:deskcolor="#505050"
     inkscape:document-units="mm"
     showgrid="false"
     inkscape:zoom="10.35098"
     inkscape:cx="8.3083922"
     inkscape:cy="31.494603"
     inkscape:window-width="1247"
     inkscape:window-height="1367"
     inkscape:window-x="24"
     inkscape:window-y="24"
     inkscape:window-maximized="1"
     inkscape:current-layer="layer1" /><defs
     id="defs65660" /><g
     inkscape:label="Layer 1"
     inkscape:groupmode="layer"
     id="layer1"><g
       inkscape:label="Layer 1"
       id="layer1-8"
       transform="translate(1.3773059,4.3463332)"><path
         id="rect64118"
         style="opacity:1;vector-effect:none;fill:#ffffff;stroke-width:0.0499999;stop-color:#000000;stop-opacity:1"
         d="M 0.0748479,0 H 1.4413263 V 0.8324663 H 0.0748479 Z" /><path
         id="rect64118-1"
         style="fill:#ffffff;stroke-width:0.0907514"
         d="m 0.0748479,0.9342286 h 1.3664784 v 2.7424281 l 0.082029,-0.00141 -5.001e-4,0.224682 L 0.00351,3.9009887 0,3.6766639 h 0.074851 z"
         sodipodi:nodetypes="ccccccccc" /></g><path
       style="fill:#a46d42;fill-opacity:1;stroke:none;stroke-width:0.05;stroke-linecap:butt;stroke-linejoin:miter;stroke-dasharray:none;stroke-opacity:1"
       d="m 1.0372797,6.2777735 c 0,0 0.064614,-0.4812668 -0.24736108,-0.714515 C 0.70483103,4.9101537 1.0444282,4.5379955 1.0444282,4.5379955 1.0532605,3.9926415 1.547423,3.7780494 1.547423,3.7780494 1.980006,3.6103041 1.9684579,2.7667053 1.9684579,2.7667053 c 0,0 0.5049735,0.3624462 0.5282631,1.0307849 0,0 0.8155066,0.091156 0.795143,0.7305313 0.3955869,0.563242 -0.033549,1.184267 -0.033549,1.184267 -0.099001,0.1808223 0,0.4958236 0,0.4958236 0.5128307,-0.2620061 0.8012036,-0.9472663 0.8012036,-0.9472663 0,0 -0.1658971,0.1475197 -0.3729757,0.069512 0.4874458,-0.827515 0.2871054,-1.6356126 0.2871054,-1.6356126 0,0 -0.1601341,0.4292071 -0.3503149,0.4068411 C 3.2464339,3.7842412 3.6851581,3.3297101 3.6851581,3.3297101 3.7980734,2.8053742 3.4584854,2.4857893 3.4584854,2.4857893 3.3057829,2.3984773 3.2907813,1.8139762 3.2907813,1.8139762 c 0,0 -0.047315,0.3554797 -0.3322838,0.8686509 C 2.5048563,2.3632893 2.7078781,1.8359311 2.7078781,1.8359311 3.0627697,1.2167919 2.197487,0.5115844 2.197487,0.5115844 c 0,0 -0.075371,0.7206047 -0.4498303,0.9250651 C 1.4367873,1.7485979 1.2897445,2.3290594 1.2897445,2.3290594 1.190755,2.44698 0.99549082,2.4005651 0.99549082,2.4005651 1.1806191,1.6317538 0.79253842,1.282383 0.79253842,1.282383 c 0,0 0.0315623,0.2051163 -0.3954452,1.0431362 0,0 -0.0649261,0.7965999 0.0471518,1.2043421 -0.24459071,-0.046895 -0.4419535,-0.3199104 -0.4419535,-0.3199104 0,0 -0.0650177,0.9320562 0.4975991,1.8339559 0,0 -0.17639583,0.058788 -0.419529,-0.096954 0,0 0.06835911,1.1842972 0.95691808,1.3308207 z"
       id="path66531"
       sodipodi:nodetypes="ccccccccccccccccccccccccccccc" /><path
       style="fill:#a46d42;fill-opacity:1;stroke:none;stroke-width:0.05;stroke-linecap:butt;stroke-linejoin:miter;stroke-dasharray:none;stroke-opacity:1"
       d="m 1.2550452,1.4093481 c 0,0 0.2405163,-0.1415255 0.1540632,-0.5264511 -0.1054366,-0.2099899 0.03008,-0.5719238 0.03008,-0.5719238 0,0 -0.3168435,0.091395 -0.3669419,0.4811544 0,0 0.09569,0.5038346 0.1827987,0.6172205 z"
       id="path68690"
       sodipodi:nodetypes="ccccc" /><path
       style="fill:#a46d42;fill-opacity:1;stroke:none;stroke-width:0.05;stroke-linecap:butt;stroke-linejoin:miter;stroke-dasharray:none;stroke-opacity:1"
       d="M 3.0912995,1.1826179 C 2.8081722,0.8839425 2.9804791,0.6220036 2.9804791,0.6220036 3.1478499,0.4216624 2.9351594,0 2.9351594,0 c 0,0 0.380598,0.13117887 0.4892341,0.5217359 -0.030649,0.332969 -0.333094,0.660882 -0.333094,0.660882 z"
       id="path68692"
       sodipodi:nodetypes="ccccc" /><path
       style="fill:#a46d42;fill-opacity:1;stroke:none;stroke-width:0.05;stroke-linecap:butt;stroke-linejoin:miter;stroke-dasharray:none;stroke-opacity:1"
       d="m 4.0746478,2.0769916 c 0,0 -0.00796,0.381195 0.228192,0.5169718 0,0 0.1489377,0.4129621 -0.070081,0.5251262 C 4.1935326,2.8206851 3.910127,2.5318035 3.910127,2.5318035 3.7516819,2.3272374 4.0746478,2.0769916 4.0746478,2.0769916 Z"
       id="path68694"
       sodipodi:nodetypes="ccccc" /></g></svg>
