<?xml version="1.0" encoding="UTF-8" standalone="no"?>
<!-- Created with Inkscape (http://www.inkscape.org/) -->

<svg
   width="21.513893mm"
   height="21.801893mm"
   viewBox="0 0 21.513893 21.801893"
   version="1.1"
   id="svg5"
   xml:space="preserve"
   inkscape:version="1.2.1 (9c6d41e410, 2022-07-14, custom)"
   sodipodi:docname="Dice.svg"
   xmlns:inkscape="http://www.inkscape.org/namespaces/inkscape"
   xmlns:sodipodi="http://sodipodi.sourceforge.net/DTD/sodipodi-0.dtd"
   xmlns="http://www.w3.org/2000/svg"
   xmlns:svg="http://www.w3.org/2000/svg"><sodipodi:namedview
     id="namedview7"
     pagecolor="#505050"
     bordercolor="#eeeeee"
     borderopacity="1"
     inkscape:showpageshadow="0"
     inkscape:pageopacity="0"
     inkscape:pagecheckerboard="0"
     inkscape:deskcolor="#505050"
     inkscape:document-units="mm"
     showgrid="false"
     inkscape:zoom="3.659624"
     inkscape:cx="92.495841"
     inkscape:cy="52.464406"
     inkscape:window-width="2510"
     inkscape:window-height="1367"
     inkscape:window-x="24"
     inkscape:window-y="24"
     inkscape:window-maximized="1"
     inkscape:current-layer="layer1" /><defs
     id="defs2" /><g
     inkscape:label="Layer 1"
     inkscape:groupmode="layer"
     id="layer1"><path
       style="display:inline;fill:#ffffff;fill-opacity:1;stroke:none;stroke-width:0.264583px;stroke-linecap:butt;stroke-linejoin:miter;stroke-opacity:1"
       d="M 3.6247203,2.2667394 C 5.1256828,-0.66839881 7.9079963,0.08731329 7.9079963,0.08731329 L 15.944347,1.6648427 c 2.160169,0.5888246 3.597114,2.5037142 3.597114,2.5037142 1.642779,2.373586 1.939774,4.782457 1.939774,4.782457 0.123942,1.2941221 -0.144833,2.3688071 -0.144833,2.3688071 -0.540036,2.80322 -3.256119,8.905863 -3.256119,8.905863 -1.302345,2.164873 -3.541657,1.469991 -3.541657,1.469991 L 6.6755623,19.730285 C 4.673739,19.056686 3.4370053,17.964054 3.4370053,17.964054 1.6314627,16.093737 0.65447727,14.594882 0.65447727,14.594882 c -1.22639058,-2.227938 -0.353017,-4.374884 -0.353017,-4.374884 z"
       id="path2675"
       sodipodi:nodetypes="ccccccccccccc" /><path
       id="path5633"
       style="fill:#b8b8b8;stroke-width:0.0499999;stop-color:#000000"
       d="M 8.4942669,3.2080096 A 1.3741225,1.7255317 65.572605 0 1 7.4914486,5.1727059 1.3741225,1.7255317 65.572605 0 1 5.3521213,4.6351619 1.3741225,1.7255317 65.572605 0 1 6.3549399,2.6704669 1.3741225,1.7255317 65.572605 0 1 8.4942669,3.2080096 Z" /><path
       id="path5633-5"
       style="fill:#b8b8b8;stroke-width:0.0499999;stop-color:#000000"
       d="m 10.392909,6.7416969 a 1.3474847,1.7255317 65.572605 0 1 -1.013833,1.940442 1.3474847,1.7255317 65.572605 0 1 -2.1283115,-0.51329 1.3474847,1.7255317 65.572605 0 1 1.0138341,-1.940443 1.3474847,1.7255317 65.572605 0 1 2.1283104,0.513291 z" /><path
       id="path5633-5-3"
       style="fill:#b8b8b8;stroke-width:0.0499999;stop-color:#000000"
       d="m 14.674886,4.4585079 a 1.4203215,1.7255317 65.572605 0 1 -0.983713,2.006758 1.4203215,1.7255317 65.572605 0 1 -2.158431,-0.579606 1.4203215,1.7255317 65.572605 0 1 0.983712,-2.0067596 1.4203215,1.7255317 65.572605 0 1 2.158432,0.5796076 z" /><path
       id="path5633-5-3-5"
       style="fill:#b8b8b8;stroke-width:0.0499999;stop-color:#000000"
       d="M 6.1770555,9.0157679 A 1.3384382,1.6706489 65.572605 0 1 5.2094509,10.925278 1.3384382,1.6706489 65.572605 0 1 3.1348505,10.397528 1.3384382,1.6706489 65.572605 0 1 4.1024557,8.4880189 1.3384382,1.6706489 65.572605 0 1 6.1770555,9.0157679 Z" /><path
       id="path5633-5-3-6"
       style="fill:#b8b8b8;stroke-width:0.0499999;stop-color:#000000"
       d="M 12.311776,10.361357 A 1.4916399,1.7380038 65.572605 0 1 11.3462,12.438208 1.4916399,1.7380038 65.572605 0 1 9.1469194,11.798825 1.4916399,1.7380038 65.572605 0 1 10.112495,9.7219739 1.4916399,1.7380038 65.572605 0 1 12.311776,10.361357 Z" /><path
       id="path5633-5-3-2"
       style="fill:#b8b8b8;stroke-width:0.0499999;stop-color:#000000"
       d="m 18.215869,11.017395 a 0.54825884,1.5282556 11.242026 0 1 0.2398,1.605817 0.54825884,1.5282556 11.242026 0 1 -0.835678,1.392047 0.54825884,1.5282556 11.242026 0 1 -0.239799,-1.605817 0.54825884,1.5282556 11.242026 0 1 0.835677,-1.392047 z" /><path
       id="path5633-5-3-2-9"
       style="fill:#b8b8b8;stroke-width:0.0499999;stop-color:#000000"
       d="m 11.924503,17.504402 a 1.5282556,0.49607319 21.091419 0 1 -1.604389,-0.08711 1.5282556,0.49607319 21.091419 0 1 -1.247359,-1.012793 1.5282556,0.49607319 21.091419 0 1 1.60439,0.08711 1.5282556,0.49607319 21.091419 0 1 1.247358,1.012794 z" /><path
       id="path5633-5-3-2-9-1"
       style="fill:#b8b8b8;stroke-width:0.0499999;stop-color:#000000"
       d="m 9.8723702,18.158283 a 1.5282556,0.49607319 21.091419 0 1 -1.6043896,-0.08711 1.5282556,0.49607319 21.091419 0 1 -1.2473579,-1.012794 1.5282556,0.49607319 21.091419 0 1 1.6043887,0.08711 1.5282556,0.49607319 21.091419 0 1 1.2473588,1.012794 z" /><path
       id="path5633-5-3-2-9-2"
       style="fill:#b8b8b8;stroke-width:0.0499999;stop-color:#000000"
       d="m 7.9910609,18.863008 a 1.5282556,0.49607319 21.091419 0 1 -1.6043887,-0.08711 1.5282556,0.49607319 21.091419 0 1 -1.2473588,-1.012794 1.5282556,0.49607319 21.091419 0 1 1.60439,0.08711 1.5282556,0.49607319 21.091419 0 1 1.2473575,1.012794 z" /></g></svg>
